<mxfile host="app.diagrams.net" modified="2022-09-28T09:29:35.693Z" agent="5.0 (Windows NT 10.0; Win64; x64) AppleWebKit/537.36 (KHTML, like Gecko) Chrome/105.0.0.0 Safari/537.36" etag="IKtzRdwhTbkFvKU-BIz_" version="20.3.7" type="github">
  <diagram id="BKgCN4qbo_8PVQv8CQGY" name="페이지-1">
    <mxGraphModel dx="1504" dy="684" grid="1" gridSize="10" guides="1" tooltips="1" connect="1" arrows="1" fold="1" page="1" pageScale="1" pageWidth="827" pageHeight="1169" math="0" shadow="0">
      <root>
        <mxCell id="0" />
        <mxCell id="1" parent="0" />
        <mxCell id="66dJpSZi2h7cAA9dzKoU-3" style="edgeStyle=orthogonalEdgeStyle;rounded=0;orthogonalLoop=1;jettySize=auto;html=1;exitX=1;exitY=0.5;exitDx=0;exitDy=0;" edge="1" parent="1" source="66dJpSZi2h7cAA9dzKoU-1">
          <mxGeometry relative="1" as="geometry">
            <mxPoint x="120" y="45" as="targetPoint" />
          </mxGeometry>
        </mxCell>
        <mxCell id="66dJpSZi2h7cAA9dzKoU-1" value="시작" style="ellipse;shape=doubleEllipse;margin=3;whiteSpace=wrap;html=1;align=center;" vertex="1" parent="1">
          <mxGeometry x="10" y="10" width="70" height="70" as="geometry" />
        </mxCell>
        <mxCell id="66dJpSZi2h7cAA9dzKoU-9" value="" style="edgeStyle=orthogonalEdgeStyle;rounded=0;orthogonalLoop=1;jettySize=auto;html=1;" edge="1" parent="1" source="66dJpSZi2h7cAA9dzKoU-7" target="66dJpSZi2h7cAA9dzKoU-8">
          <mxGeometry relative="1" as="geometry" />
        </mxCell>
        <mxCell id="66dJpSZi2h7cAA9dzKoU-7" value="몇 명이 참가할지 선택한다." style="ellipse;whiteSpace=wrap;html=1;" vertex="1" parent="1">
          <mxGeometry x="130" y="12.5" width="170" height="65" as="geometry" />
        </mxCell>
        <mxCell id="66dJpSZi2h7cAA9dzKoU-39" value="" style="edgeStyle=orthogonalEdgeStyle;rounded=0;orthogonalLoop=1;jettySize=auto;html=1;" edge="1" parent="1" source="66dJpSZi2h7cAA9dzKoU-8" target="66dJpSZi2h7cAA9dzKoU-38">
          <mxGeometry relative="1" as="geometry" />
        </mxCell>
        <mxCell id="66dJpSZi2h7cAA9dzKoU-8" value="참가자 순서를 정한다." style="ellipse;whiteSpace=wrap;html=1;" vertex="1" parent="1">
          <mxGeometry x="130" y="110" width="170" height="65" as="geometry" />
        </mxCell>
        <mxCell id="66dJpSZi2h7cAA9dzKoU-12" value="대기" style="shape=ext;margin=3;double=1;whiteSpace=wrap;html=1;align=center;" vertex="1" parent="1">
          <mxGeometry x="165" y="430" width="100" height="40" as="geometry" />
        </mxCell>
        <mxCell id="66dJpSZi2h7cAA9dzKoU-15" value="" style="edgeStyle=orthogonalEdgeStyle;rounded=0;orthogonalLoop=1;jettySize=auto;html=1;" edge="1" parent="1" source="66dJpSZi2h7cAA9dzKoU-13" target="66dJpSZi2h7cAA9dzKoU-14">
          <mxGeometry relative="1" as="geometry" />
        </mxCell>
        <mxCell id="66dJpSZi2h7cAA9dzKoU-13" value="입력 버튼 클릭" style="shape=ext;margin=3;double=1;whiteSpace=wrap;html=1;align=center;" vertex="1" parent="1">
          <mxGeometry x="520" y="65" width="130" height="65" as="geometry" />
        </mxCell>
        <mxCell id="66dJpSZi2h7cAA9dzKoU-19" value="" style="edgeStyle=orthogonalEdgeStyle;rounded=0;orthogonalLoop=1;jettySize=auto;html=1;" edge="1" parent="1" source="66dJpSZi2h7cAA9dzKoU-14" target="66dJpSZi2h7cAA9dzKoU-18">
          <mxGeometry relative="1" as="geometry" />
        </mxCell>
        <mxCell id="66dJpSZi2h7cAA9dzKoU-28" value="" style="edgeStyle=orthogonalEdgeStyle;rounded=0;orthogonalLoop=1;jettySize=auto;html=1;" edge="1" parent="1" source="66dJpSZi2h7cAA9dzKoU-14" target="66dJpSZi2h7cAA9dzKoU-27">
          <mxGeometry relative="1" as="geometry" />
        </mxCell>
        <mxCell id="66dJpSZi2h7cAA9dzKoU-14" value="제시어가 &lt;br&gt;비워져 있는가?" style="rhombus;whiteSpace=wrap;html=1;" vertex="1" parent="1">
          <mxGeometry x="522.5" y="202.5" width="125" height="80" as="geometry" />
        </mxCell>
        <mxCell id="66dJpSZi2h7cAA9dzKoU-21" value="" style="edgeStyle=orthogonalEdgeStyle;rounded=0;orthogonalLoop=1;jettySize=auto;html=1;" edge="1" parent="1" source="66dJpSZi2h7cAA9dzKoU-18" target="66dJpSZi2h7cAA9dzKoU-20">
          <mxGeometry relative="1" as="geometry" />
        </mxCell>
        <mxCell id="66dJpSZi2h7cAA9dzKoU-18" value="입력한 단어가&lt;br&gt;&amp;nbsp;제시어가 된다." style="ellipse;whiteSpace=wrap;html=1;" vertex="1" parent="1">
          <mxGeometry x="400" y="310" width="120" height="60" as="geometry" />
        </mxCell>
        <mxCell id="66dJpSZi2h7cAA9dzKoU-22" value="대기" style="shape=ext;margin=3;double=1;whiteSpace=wrap;html=1;align=center;" vertex="1" parent="1">
          <mxGeometry x="414" y="770" width="90" height="45" as="geometry" />
        </mxCell>
        <mxCell id="66dJpSZi2h7cAA9dzKoU-25" value="예" style="text;html=1;strokeColor=none;fillColor=default;align=center;verticalAlign=middle;whiteSpace=wrap;rounded=0;fontColor=#333333;" vertex="1" parent="1">
          <mxGeometry x="445" y="231.25" width="30" height="22.5" as="geometry" />
        </mxCell>
        <mxCell id="66dJpSZi2h7cAA9dzKoU-29" style="edgeStyle=orthogonalEdgeStyle;rounded=0;orthogonalLoop=1;jettySize=auto;html=1;exitX=0;exitY=0.5;exitDx=0;exitDy=0;entryX=1;entryY=0.5;entryDx=0;entryDy=0;" edge="1" parent="1" source="66dJpSZi2h7cAA9dzKoU-27" target="66dJpSZi2h7cAA9dzKoU-18">
          <mxGeometry relative="1" as="geometry" />
        </mxCell>
        <mxCell id="66dJpSZi2h7cAA9dzKoU-32" value="" style="edgeStyle=orthogonalEdgeStyle;rounded=0;orthogonalLoop=1;jettySize=auto;html=1;" edge="1" parent="1" source="66dJpSZi2h7cAA9dzKoU-27" target="66dJpSZi2h7cAA9dzKoU-31">
          <mxGeometry relative="1" as="geometry" />
        </mxCell>
        <mxCell id="66dJpSZi2h7cAA9dzKoU-27" value="입력한 단어가 &lt;br&gt;올바른가?" style="rhombus;whiteSpace=wrap;html=1;" vertex="1" parent="1">
          <mxGeometry x="650" y="300" width="125" height="80" as="geometry" />
        </mxCell>
        <mxCell id="66dJpSZi2h7cAA9dzKoU-30" value="예" style="text;html=1;strokeColor=none;fillColor=default;align=center;verticalAlign=middle;whiteSpace=wrap;rounded=0;fontColor=#333333;" vertex="1" parent="1">
          <mxGeometry x="580" y="330" width="30" height="22.5" as="geometry" />
        </mxCell>
        <mxCell id="66dJpSZi2h7cAA9dzKoU-36" style="edgeStyle=orthogonalEdgeStyle;rounded=0;orthogonalLoop=1;jettySize=auto;html=1;exitX=0.5;exitY=1;exitDx=0;exitDy=0;entryX=0.5;entryY=0;entryDx=0;entryDy=0;" edge="1" parent="1" source="66dJpSZi2h7cAA9dzKoU-31" target="66dJpSZi2h7cAA9dzKoU-35">
          <mxGeometry relative="1" as="geometry" />
        </mxCell>
        <mxCell id="66dJpSZi2h7cAA9dzKoU-31" value="틀렸다고 경고를 준다." style="ellipse;whiteSpace=wrap;html=1;" vertex="1" parent="1">
          <mxGeometry x="652.5" y="440" width="120" height="60" as="geometry" />
        </mxCell>
        <mxCell id="66dJpSZi2h7cAA9dzKoU-33" value="아니요" style="text;html=1;strokeColor=none;fillColor=default;align=center;verticalAlign=middle;whiteSpace=wrap;rounded=0;fontColor=#333333;" vertex="1" parent="1">
          <mxGeometry x="691.25" y="231.25" width="42.5" height="22.5" as="geometry" />
        </mxCell>
        <mxCell id="66dJpSZi2h7cAA9dzKoU-34" value="아니요" style="text;html=1;strokeColor=none;fillColor=default;align=center;verticalAlign=middle;whiteSpace=wrap;rounded=0;fontColor=#333333;" vertex="1" parent="1">
          <mxGeometry x="691.25" y="387.5" width="42.5" height="22.5" as="geometry" />
        </mxCell>
        <mxCell id="66dJpSZi2h7cAA9dzKoU-35" value="끝" style="ellipse;shape=doubleEllipse;margin=3;whiteSpace=wrap;html=1;align=center;" vertex="1" parent="1">
          <mxGeometry x="677.5" y="540" width="70" height="70" as="geometry" />
        </mxCell>
        <mxCell id="66dJpSZi2h7cAA9dzKoU-42" value="" style="edgeStyle=orthogonalEdgeStyle;rounded=0;orthogonalLoop=1;jettySize=auto;html=1;" edge="1" parent="1" source="66dJpSZi2h7cAA9dzKoU-38" target="66dJpSZi2h7cAA9dzKoU-41">
          <mxGeometry relative="1" as="geometry" />
        </mxCell>
        <mxCell id="66dJpSZi2h7cAA9dzKoU-38" value="제시어를 저장할&amp;nbsp;&lt;br&gt;변수를 만든다." style="ellipse;whiteSpace=wrap;html=1;" vertex="1" parent="1">
          <mxGeometry x="155" y="220" width="120" height="60" as="geometry" />
        </mxCell>
        <mxCell id="66dJpSZi2h7cAA9dzKoU-45" style="edgeStyle=orthogonalEdgeStyle;rounded=0;orthogonalLoop=1;jettySize=auto;html=1;exitX=0.5;exitY=1;exitDx=0;exitDy=0;entryX=0.5;entryY=0;entryDx=0;entryDy=0;" edge="1" parent="1" source="66dJpSZi2h7cAA9dzKoU-41" target="66dJpSZi2h7cAA9dzKoU-12">
          <mxGeometry relative="1" as="geometry" />
        </mxCell>
        <mxCell id="66dJpSZi2h7cAA9dzKoU-41" value="입력한 단어를 &lt;br&gt;저장할 변수를 만든다." style="ellipse;whiteSpace=wrap;html=1;" vertex="1" parent="1">
          <mxGeometry x="155" y="330" width="120" height="60" as="geometry" />
        </mxCell>
        <mxCell id="66dJpSZi2h7cAA9dzKoU-49" value="" style="edgeStyle=orthogonalEdgeStyle;rounded=0;orthogonalLoop=1;jettySize=auto;html=1;" edge="1" parent="1" source="66dJpSZi2h7cAA9dzKoU-46" target="66dJpSZi2h7cAA9dzKoU-48">
          <mxGeometry relative="1" as="geometry" />
        </mxCell>
        <mxCell id="66dJpSZi2h7cAA9dzKoU-46" value="단어 입력&lt;br&gt;(input 이벤트)" style="shape=ext;margin=3;double=1;whiteSpace=wrap;html=1;align=center;" vertex="1" parent="1">
          <mxGeometry x="65" y="650" width="130" height="65" as="geometry" />
        </mxCell>
        <mxCell id="66dJpSZi2h7cAA9dzKoU-48" value="입력할 단어를&lt;br&gt;저장한다." style="ellipse;whiteSpace=wrap;html=1;" vertex="1" parent="1">
          <mxGeometry x="70" y="797.5" width="120" height="60" as="geometry" />
        </mxCell>
        <mxCell id="66dJpSZi2h7cAA9dzKoU-52" value="" style="group" vertex="1" connectable="0" parent="1">
          <mxGeometry x="260" y="410" width="400" height="300" as="geometry" />
        </mxCell>
        <mxCell id="66dJpSZi2h7cAA9dzKoU-20" value="" style="ellipse;whiteSpace=wrap;html=1;" vertex="1" parent="66dJpSZi2h7cAA9dzKoU-52">
          <mxGeometry width="400" height="300" as="geometry" />
        </mxCell>
        <mxCell id="66dJpSZi2h7cAA9dzKoU-51" value="&lt;span style=&quot;color: rgb(0, 0, 0); font-family: Helvetica; font-size: 12px; font-style: normal; font-variant-ligatures: normal; font-variant-caps: normal; font-weight: 400; letter-spacing: normal; orphans: 2; text-align: center; text-indent: 0px; text-transform: none; widows: 2; word-spacing: 0px; -webkit-text-stroke-width: 0px; background-color: rgb(248, 249, 250); text-decoration-thickness: initial; text-decoration-style: initial; text-decoration-color: initial; float: none; display: inline !important;&quot;&gt;다음 사람에게&amp;nbsp;&lt;/span&gt;&lt;span style=&quot;color: rgb(0, 0, 0); font-family: Helvetica; font-size: 12px; font-style: normal; font-variant-ligatures: normal; font-variant-caps: normal; font-weight: 400; letter-spacing: normal; orphans: 2; text-align: center; text-indent: 0px; text-transform: none; widows: 2; word-spacing: 0px; -webkit-text-stroke-width: 0px; background-color: rgb(248, 249, 250); text-decoration-thickness: initial; text-decoration-style: initial; text-decoration-color: initial; float: none; display: inline !important;&quot;&gt;순서를 넘긴다.&lt;/span&gt;" style="text;whiteSpace=wrap;html=1;" vertex="1" parent="66dJpSZi2h7cAA9dzKoU-52">
          <mxGeometry x="109.38" y="20" width="200" height="20" as="geometry" />
        </mxCell>
        <mxCell id="66dJpSZi2h7cAA9dzKoU-53" value="현재 순서를 파악한다." style="ellipse;whiteSpace=wrap;html=1;rounded=0;fillColor=default;" vertex="1" parent="66dJpSZi2h7cAA9dzKoU-52">
          <mxGeometry x="151.875" y="50" width="96.25" height="60" as="geometry" />
        </mxCell>
        <mxCell id="66dJpSZi2h7cAA9dzKoU-62" style="edgeStyle=orthogonalEdgeStyle;rounded=0;orthogonalLoop=1;jettySize=auto;html=1;exitX=1;exitY=0.5;exitDx=0;exitDy=0;entryX=0.5;entryY=0;entryDx=0;entryDy=0;" edge="1" parent="66dJpSZi2h7cAA9dzKoU-52" source="66dJpSZi2h7cAA9dzKoU-54" target="66dJpSZi2h7cAA9dzKoU-61">
          <mxGeometry relative="1" as="geometry" />
        </mxCell>
        <mxCell id="66dJpSZi2h7cAA9dzKoU-54" value="현재 순서에 1을 더한 값이 number보다 큰가?" style="rhombus;whiteSpace=wrap;html=1;rounded=0;" vertex="1" parent="66dJpSZi2h7cAA9dzKoU-52">
          <mxGeometry x="109.375" y="130" width="181.25" height="70" as="geometry" />
        </mxCell>
        <mxCell id="66dJpSZi2h7cAA9dzKoU-55" value="" style="edgeStyle=orthogonalEdgeStyle;rounded=0;orthogonalLoop=1;jettySize=auto;html=1;" edge="1" parent="66dJpSZi2h7cAA9dzKoU-52" source="66dJpSZi2h7cAA9dzKoU-53" target="66dJpSZi2h7cAA9dzKoU-54">
          <mxGeometry relative="1" as="geometry" />
        </mxCell>
        <mxCell id="66dJpSZi2h7cAA9dzKoU-58" value="다음 순서를 1로" style="ellipse;whiteSpace=wrap;html=1;rounded=0;" vertex="1" parent="66dJpSZi2h7cAA9dzKoU-52">
          <mxGeometry x="50" y="200" width="74" height="40" as="geometry" />
        </mxCell>
        <mxCell id="66dJpSZi2h7cAA9dzKoU-59" value="" style="edgeStyle=orthogonalEdgeStyle;rounded=0;orthogonalLoop=1;jettySize=auto;html=1;" edge="1" parent="66dJpSZi2h7cAA9dzKoU-52" source="66dJpSZi2h7cAA9dzKoU-54" target="66dJpSZi2h7cAA9dzKoU-58">
          <mxGeometry relative="1" as="geometry">
            <Array as="points">
              <mxPoint x="90" y="165" />
            </Array>
          </mxGeometry>
        </mxCell>
        <mxCell id="66dJpSZi2h7cAA9dzKoU-61" value="다음 순서를 현재 순서 +1로" style="ellipse;whiteSpace=wrap;html=1;rounded=0;" vertex="1" parent="66dJpSZi2h7cAA9dzKoU-52">
          <mxGeometry x="270" y="200" width="100" height="40" as="geometry" />
        </mxCell>
        <mxCell id="66dJpSZi2h7cAA9dzKoU-67" value="예" style="text;html=1;strokeColor=none;fillColor=default;align=center;verticalAlign=middle;whiteSpace=wrap;rounded=0;fontColor=#333333;" vertex="1" parent="66dJpSZi2h7cAA9dzKoU-52">
          <mxGeometry x="72" y="153.75" width="30" height="22.5" as="geometry" />
        </mxCell>
        <mxCell id="66dJpSZi2h7cAA9dzKoU-71" value="아니요" style="text;html=1;strokeColor=none;fillColor=default;align=center;verticalAlign=middle;whiteSpace=wrap;rounded=0;fontColor=#333333;" vertex="1" parent="66dJpSZi2h7cAA9dzKoU-52">
          <mxGeometry x="298.75" y="153.75" width="42.5" height="22.5" as="geometry" />
        </mxCell>
        <mxCell id="66dJpSZi2h7cAA9dzKoU-65" style="edgeStyle=orthogonalEdgeStyle;rounded=0;orthogonalLoop=1;jettySize=auto;html=1;exitX=0.5;exitY=1;exitDx=0;exitDy=0;entryX=0.5;entryY=0;entryDx=0;entryDy=0;" edge="1" parent="1" source="66dJpSZi2h7cAA9dzKoU-58" target="66dJpSZi2h7cAA9dzKoU-22">
          <mxGeometry relative="1" as="geometry">
            <Array as="points">
              <mxPoint x="347" y="710" />
              <mxPoint x="459" y="710" />
            </Array>
          </mxGeometry>
        </mxCell>
        <mxCell id="66dJpSZi2h7cAA9dzKoU-66" style="edgeStyle=orthogonalEdgeStyle;rounded=0;orthogonalLoop=1;jettySize=auto;html=1;exitX=0.5;exitY=1;exitDx=0;exitDy=0;entryX=0.5;entryY=0;entryDx=0;entryDy=0;" edge="1" parent="1" source="66dJpSZi2h7cAA9dzKoU-61" target="66dJpSZi2h7cAA9dzKoU-22">
          <mxGeometry relative="1" as="geometry" />
        </mxCell>
      </root>
    </mxGraphModel>
  </diagram>
</mxfile>
